<svg version="1.1" id="Layer_1" xmlns="http://www.w3.org/2000/svg" xmlns:xlink="http://www.w3.org/1999/xlink" x="0px" y="0px" viewBox="0 0 500 500" style="width: 188px;" xml:space="preserve" data-imageid="architect-78" imageName="Architect" class="illustrations_image">
<style type="text/css">
	.st0_architect-78{fill:#231F20;}
	.st1_architect-78{fill:#FFFFFF;}
	.st2_architect-78{fill:#D1D3D4;}
	.st3_architect-78{fill:#68E1FD;}
</style>
<g id="Drawing_Board_architect-78">
	<path class="st0_architect-78" d="M145.3,212.2c-0.8,3.7-20.5,161-20.5,161h3.5l25.1-167.9L145.3,212.2z"/>
	<path class="st0_architect-78" d="M128.4,373.9h-3.6c-0.2,0-0.4-0.1-0.5-0.2c-0.1-0.1-0.2-0.4-0.2-0.5c0.8-6.4,19.6-157.3,20.5-161&#10;&#9;&#9;c0-0.1,0.1-0.3,0.2-0.4l8.2-6.9c0.2-0.2,0.5-0.2,0.8-0.1c0.3,0.1,0.4,0.4,0.4,0.7l-25.1,167.8C129,373.6,128.7,373.9,128.4,373.9z&#10;&#9;&#9; M125.6,372.5h2.2L152.5,207l-6.6,5.6C144.7,219.8,127.1,360.6,125.6,372.5z"/>
	<polygon class="st0_architect-78" points="178.8,254.9 179.9,357.7 182.7,357.7 192.2,246.8 &#9;"/>
	<path class="st0_architect-78" d="M182.7,358.4h-2.8c-0.4,0-0.7-0.3-0.7-0.7L178.1,255c0-0.2,0.1-0.5,0.3-0.6l13.4-8.2c0.2-0.1,0.5-0.1,0.7,0&#10;&#9;&#9;c0.2,0.1,0.4,0.4,0.3,0.6l-9.5,110.9C183.4,358.1,183.1,358.4,182.7,358.4z M180.6,357h1.5l9.3-108.9l-11.9,7.2L180.6,357z"/>
	<polygon class="st0_architect-78" points="370.9,164.1 386.9,382.6 389.9,382.6 377.5,145.4 &#9;"/>
	<path class="st0_architect-78" d="M389.9,383.4h-3c-0.4,0-0.7-0.3-0.7-0.6l-16-218.5c0-0.1,0-0.2,0-0.3l6.6-18.7c0.1-0.4,0.5-0.6,0.9-0.5&#10;&#9;&#9;c0.3,0.1,0.5,0.4,0.5,0.7l12.4,237.3c0,0.2,0,0.4-0.2,0.5C390.3,383.3,390.1,383.4,389.9,383.4z M387.6,382h1.6l-12.2-233&#10;&#9;&#9;l-5.4,15.3L387.6,382z"/>
	<polygon class="st0_architect-78" points="335.2,270.2 337.3,395.7 340.7,395.7 342.1,250.8 &#9;"/>
	<path class="st0_architect-78" d="M340.7,396.4h-3.3c-0.4,0-0.7-0.3-0.7-0.7l-2.1-125.5c0-0.1,0-0.2,0-0.2l6.9-19.4c0.1-0.3,0.5-0.5,0.8-0.5&#10;&#9;&#9;c0.3,0.1,0.6,0.4,0.6,0.7l-1.4,144.9C341.3,396,341,396.3,340.7,396.4z M338,395h2l1.4-140l-5.4,15.3L338,395z"/>
	<polygon class="st1_architect-78" points="176,80.4 109.6,251.1 328.3,289.7 390.4,114.3 &#9;"/>
	<path class="st0_architect-78" d="M328.3,290.4h-0.1l-218.7-38.7c-0.4-0.1-0.6-0.4-0.6-0.8c0,0,0-0.1,0-0.1l66.4-170.6c0.1-0.3,0.4-0.5,0.8-0.4&#10;&#9;&#9;l214.4,33.9c0.2,0,0.4,0.2,0.5,0.3c0.1,0.2,0.1,0.4,0.1,0.6L328.9,290C328.8,290.3,328.5,290.4,328.3,290.4z M110.6,250.5&#10;&#9;&#9;L327.8,289l61.6-174.1l-213-33.7L110.6,250.5z"/>
	<path class="st2_architect-78" d="M261.8,224.5c0,0-0.1,0-0.1,0L167.8,204c-0.2,0-0.4-0.2-0.5-0.4c-0.1-0.2-0.1-0.4,0-0.6l35.1-92.5&#10;&#9;&#9;c0.1-0.3,0.4-0.5,0.8-0.4l78.6,13.3c0.2,0,0.4,0.2,0.5,0.3c0.1,0.2,0.1,0.4,0,0.6l-3.1,7.7l15.4,2.6l3.8-8.7&#10;&#9;&#9;c0.1-0.3,0.4-0.5,0.8-0.4l48.8,8.4c0.2,0,0.4,0.2,0.5,0.3c0.1,0.2,0.1,0.4,0,0.6l-20.4,55.5c-0.1,0.3-0.5,0.5-0.8,0.4l-49.2-9.7&#10;&#9;&#9;l-15.5,43C262.3,224.4,262.1,224.5,261.8,224.5z M168.9,202.8l92.5,20.2l15.5-43c0.1-0.3,0.5-0.5,0.8-0.4l49.2,9.7l20-54.1&#10;&#9;&#9;l-47.4-8.2l-3.8,8.7c-0.1,0.3-0.4,0.5-0.8,0.4l-16.8-2.8c-0.2,0-0.4-0.2-0.5-0.4c-0.1-0.2-0.1-0.4,0-0.6l3.1-7.7l-77.1-13&#10;&#9;&#9;L168.9,202.8z"/>
	<path class="st2_architect-78" d="M320,276h-0.1L127,240.8c-0.4-0.1-0.6-0.4-0.6-0.8c0,0,0-0.1,0-0.1l57.2-148.1c0.1-0.3,0.4-0.5,0.8-0.4&#10;&#9;&#9;l189.2,29.5c0.2,0,0.4,0.2,0.5,0.3c0.1,0.2,0.1,0.4,0.1,0.6l-53.5,153.9C320.6,275.8,320.3,276,320,276z M128.1,239.6l191.5,34.9&#10;&#9;&#9;l53-152.5L184.8,92.8L128.1,239.6z"/>
	<polygon class="st0_architect-78" points="338.6,321.3 381.5,308.4 382,314.9 336.2,327.8 &#9;"/>
	<path class="st0_architect-78" d="M336.2,328.5c-0.2,0-0.4-0.1-0.5-0.2c-0.2-0.2-0.2-0.5-0.1-0.7l2.5-6.5c0.1-0.2,0.3-0.4,0.5-0.4l42.9-12.9&#10;&#9;&#9;c0.2-0.1,0.4,0,0.6,0.1c0.2,0.1,0.3,0.3,0.3,0.5l0.5,6.4c0,0.3-0.2,0.6-0.5,0.7l-45.8,12.9C336.3,328.4,336.2,328.4,336.2,328.5z&#10;&#9;&#9; M339.2,321.9l-1.8,4.8l43.9-12.4l-0.4-5L339.2,321.9z"/>
	<path class="st2_architect-78" d="M322.5,195.6c0,0-0.1,0-0.1,0l-21.5-4.6c-0.2,0-0.4-0.2-0.5-0.4c-0.1-0.2-0.1-0.4,0-0.6l1.9-4.7&#10;&#9;&#9;c0.1-0.4,0.5-0.5,0.9-0.4c0,0,0,0,0,0c0.4,0.1,0.5,0.6,0.4,0.9c0,0,0,0,0,0l-1.6,4l20.1,4.3l1.9-4.8c0.1-0.4,0.5-0.5,0.9-0.4&#10;&#9;&#9;c0,0,0,0,0,0c0.4,0.1,0.5,0.6,0.4,0.9c0,0,0,0,0,0l-2.1,5.3C323.1,195.5,322.8,195.7,322.5,195.6z"/>
	<path class="st2_architect-78" d="M277.5,181c-0.1,0-0.2,0-0.2,0c-0.4-0.1-0.5-0.5-0.4-0.9l5.4-15.1l-7.8-12.7c-0.2-0.3-0.1-0.8,0.2-1&#10;&#9;&#9;c0,0,0,0,0,0c0.3-0.2,0.8-0.1,1,0.2c0,0,0,0,0,0l8,13c0.1,0.2,0.1,0.4,0.1,0.6l-5.5,15.4C278.1,180.8,277.8,181,277.5,181z"/>
	<path class="st2_architect-78" d="M288.3,152.6c-0.1,0-0.2,0-0.3-0.1c-0.4-0.1-0.5-0.6-0.4-0.9c0,0,0,0,0,0l6.6-16.4c0.1-0.4,0.6-0.5,0.9-0.4&#10;&#9;&#9;c0.4,0.1,0.5,0.6,0.4,0.9l-6.6,16.4C288.9,152.5,288.6,152.6,288.3,152.6z"/>
	<path class="st2_architect-78" d="M202.3,136.2c-0.4,0-0.7-0.3-0.7-0.6l-1.7-17.7c0-0.4,0.2-0.7,0.6-0.8c0.4,0,0.7,0.2,0.8,0.6l0,0l1.8,17.7&#10;&#9;&#9;c0,0.4-0.2,0.7-0.6,0.8C202.4,136.2,202.4,136.2,202.3,136.2L202.3,136.2z"/>
	<path class="st2_architect-78" d="M224.6,216.4c-0.1,0-0.2,0-0.3-0.1c-0.4-0.1-0.5-0.5-0.4-0.9c0,0,0,0,0,0l17.8-45.4c0.1-0.4,0.5-0.5,0.9-0.4&#10;&#9;&#9;c0.4,0.1,0.5,0.5,0.4,0.9L225.3,216C225.2,216.3,224.9,216.4,224.6,216.4z"/>
	<path class="st2_architect-78" d="M318.6,244.7h-0.1l-31.3-6.1c-0.4-0.1-0.6-0.5-0.5-0.9c0.1-0.3,0.4-0.6,0.8-0.5l31.3,6.1&#10;&#9;&#9;c0.4,0.1,0.6,0.5,0.5,0.8C319.2,244.4,319,244.7,318.6,244.7L318.6,244.7z"/>
	<path class="st2_architect-78" d="M315.5,252.8h-0.1l-31.4-6.1c-0.4-0.1-0.6-0.4-0.5-0.8c0.1-0.4,0.4-0.6,0.8-0.6l31.3,6.1&#10;&#9;&#9;c0.4,0.1,0.6,0.4,0.6,0.8C316.1,252.5,315.8,252.8,315.5,252.8L315.5,252.8z"/>
	<path class="st2_architect-78" d="M310.9,260.5h-0.1l-31.3-6.1c-0.4-0.1-0.6-0.4-0.6-0.8c0.1-0.4,0.4-0.6,0.8-0.6l31.3,6.1&#10;&#9;&#9;c0.4,0.1,0.6,0.4,0.6,0.8C311.6,260.3,311.3,260.5,310.9,260.5L310.9,260.5z"/>
	<path class="st2_architect-78" d="M250,144.3h-0.1l-24.2-4.1c-0.2,0-0.4-0.2-0.5-0.3c-0.1-0.2-0.1-0.4-0.1-0.6l8.8-23.3c0.1-0.4,0.5-0.5,0.9-0.4&#10;&#9;&#9;c0.4,0.1,0.5,0.5,0.4,0.9l-8.5,22.5l22.8,3.9l8.8-22.4c0.1-0.4,0.5-0.5,0.9-0.4c0.4,0.1,0.5,0.5,0.4,0.9c0,0,0,0,0,0l-9,23&#10;&#9;&#9;C250.6,144.1,250.3,144.3,250,144.3z"/>
	<path class="st2_architect-78" d="M237.6,109.9h-0.1l-30.3-5.4c-0.4-0.1-0.6-0.4-0.6-0.8c0.1-0.4,0.4-0.6,0.8-0.6c0,0,0,0,0,0l30.3,5.4&#10;&#9;&#9;c0.4,0.1,0.6,0.4,0.6,0.8C238.2,109.7,237.9,109.9,237.6,109.9L237.6,109.9z"/>
	<path class="st2_architect-78" d="M320.5,189.5c-0.2,0-0.4-0.1-0.5-0.3l-13.2-16.1c-0.3-0.3-0.2-0.7,0.1-1c0.3-0.3,0.7-0.2,1,0.1c0,0,0,0,0,0&#10;&#9;&#9;l13.2,16.1c0.3,0.3,0.2,0.7-0.1,1c0,0,0,0,0,0C320.8,189.5,320.7,189.5,320.5,189.5z"/>
	<polygon class="st1_architect-78" points="274.5,274.5 271,284.8 164.8,266.2 168.3,255.6 &#9;"/>
	<path class="st0_architect-78" d="M271,285.5h-0.1l-106.2-18.6c-0.2,0-0.4-0.2-0.5-0.3c-0.1-0.2-0.1-0.4-0.1-0.6l3.4-10.6&#10;&#9;&#9;c0.1-0.3,0.4-0.5,0.8-0.5l106.2,18.9c0.2,0,0.4,0.2,0.5,0.3c0.1,0.2,0.1,0.4,0.1,0.6l-3.6,10.3C271.5,285.3,271.3,285.4,271,285.5z&#10;&#9;&#9; M165.8,265.6L270.5,284l3.1-8.9l-104.8-18.7L165.8,265.6z"/>
</g>
<g id="Stool_architect-78">
	<path class="st1_architect-78" d="M135.3,403.8h-1.7c-1.6,0-2.9-1.3-2.9-2.8c0-0.2,0-0.4,0.1-0.5l11.5-59.8h5.1L135.3,403.8z"/>
	<path class="st0_architect-78" d="M135.3,404.5h-1.7c-2,0-3.6-1.6-3.6-3.5c0-0.2,0-0.5,0.1-0.7l11.5-59.8c0.1-0.3,0.4-0.6,0.7-0.6h5.1&#10;&#9;&#9;c0.2,0,0.4,0.1,0.5,0.2c0.1,0.2,0.2,0.4,0.1,0.6L136,403.9C135.9,404.3,135.7,404.5,135.3,404.5z M143,341.3l-11.4,59.2&#10;&#9;&#9;c-0.1,0.6,0.1,1.3,0.5,1.8c0.4,0.5,1,0.8,1.7,0.8h1.1l11.9-61.8H143z"/>
	<path class="st1_architect-78" d="M176.4,403.8h1.7c1.5,0,2.8-1.3,2.8-2.8c0-0.2,0-0.4-0.1-0.5l-11.6-59.8h-5.1L176.4,403.8z"/>
	<path class="st0_architect-78" d="M178.1,404.5h-1.7c-0.3,0-0.6-0.2-0.7-0.6l-12.2-63.2c0-0.2,0-0.4,0.1-0.6c0.1-0.2,0.3-0.3,0.5-0.2h5.1&#10;&#9;&#9;c0.3,0,0.6,0.2,0.7,0.6l11.6,59.9c0.4,1.9-0.9,3.7-2.8,4.1C178.6,404.5,178.3,404.5,178.1,404.5L178.1,404.5z M177,403.1h1.2&#10;&#9;&#9;c1.2,0,2.1-0.9,2.1-2.1c0-0.1,0-0.3,0-0.4l-11.4-59.3H165L177,403.1z"/>
	<path class="st1_architect-78" d="M153.3,342.4h5.1l0,0v45.9c0,1-0.8,1.8-1.8,1.8h-1.5c-1,0-1.8-0.8-1.8-1.8L153.3,342.4L153.3,342.4&#10;&#9;&#9;L153.3,342.4z"/>
	<path class="st0_architect-78" d="M155.9,390.9c-1.8,0-3.3-1.5-3.3-3.3v-45.2c0-0.4,0.3-0.7,0.7-0.7h5.1c0.4,0,0.7,0.3,0.7,0.7l0,0v45.2&#10;&#9;&#9;C159.1,389.4,157.7,390.9,155.9,390.9z M154,343.1v44.5c-0.1,1,0.7,1.9,1.7,2c1,0.1,1.9-0.7,2-1.7c0-0.1,0-0.2,0-0.3v-44.5H154z"/>
	<path class="st0_architect-78" d="M173.9,323.3c-11.9-2.7-24.2-2.7-36.1,0h-17v12c0,7.8,15.7,14.1,35,14.1s35-6.3,35-14.1v-12H173.9z"/>
	<path class="st0_architect-78" d="M155.9,350.1c-20,0-35.7-6.5-35.7-14.8v-12c0-0.4,0.3-0.7,0.7-0.7h0h16.9c11.9-2.7,24.3-2.7,36.3,0h16.9&#10;&#9;&#9;c0.4,0,0.7,0.3,0.7,0.7l0,0v12C191.6,343.6,175.9,350.1,155.9,350.1z M121.5,324v11.4c0,7.2,15.7,13.4,34.3,13.4&#10;&#9;&#9;s34.3-6.1,34.3-13.4V324h-16.3h-0.2c-11.8-2.6-24-2.6-35.7,0h-0.2H121.5z"/>
	<ellipse class="st1_architect-78" cx="155.9" cy="323.3" rx="35" ry="14.1"/>
	<path class="st0_architect-78" d="M155.9,338.1c-20,0-35.7-6.5-35.7-14.8s15.7-14.8,35.7-14.8s35.7,6.5,35.7,14.8S175.9,338.1,155.9,338.1z&#10;&#9;&#9; M155.9,309.9c-18.6,0-34.3,6.1-34.3,13.4s15.7,13.4,34.3,13.4s34.3-6.1,34.3-13.4S174.5,309.9,155.9,309.9z"/>
</g>
<g id="Character_architect-78">
	<path class="st0_architect-78" d="M190.5,375.4l-9.5,14c0,0,17.6,11,20.1,11.7s25.7,0.4,24.6-2s-22.7-10.7-22.7-10.7l-0.6-5.7L190.5,375.4z"/>
	<path class="st0_architect-78" d="M208,402c-2.4,0.1-4.8,0-7.2-0.3c-2.6-0.7-18.5-10.6-20.3-11.8c-0.2-0.1-0.3-0.3-0.3-0.5c0-0.2,0-0.4,0.1-0.5&#10;&#9;&#9;l9.5-14c0.2-0.3,0.6-0.4,1-0.2c0,0,0,0,0,0l11.8,7.2c0.2,0.1,0.3,0.3,0.3,0.5l0.6,5.3c5.6,2.1,21.7,8.5,22.7,10.9&#10;&#9;&#9;c0.2,0.4,0.1,0.8-0.2,1.1C224.8,401.5,215.1,402,208,402z M181.9,389.2c5.3,3.3,17.4,10.7,19.3,11.2c2.6,0.6,21.3,0.3,23.7-1.2&#10;&#9;&#9;c-1.5-1.6-12.2-6.3-22.2-10.1c-0.2-0.1-0.4-0.3-0.4-0.6l-0.6-5.4l-11-6.7L181.9,389.2z"/>
	<path class="st1_architect-78" d="M211.6,373.6c-0.3,0.4-9.3,9.1-9.3,9.1l-11.8-7.2l7.8-13.1L211.6,373.6z"/>
	<path class="st0_architect-78" d="M202.3,383.4c-0.1,0-0.3,0-0.4-0.1l-11.8-7.2c-0.3-0.2-0.4-0.6-0.2-0.9c0,0,0,0,0,0l7.8-13.1&#10;&#9;&#9;c0.2-0.3,0.6-0.4,1-0.2c0,0,0,0,0,0L212,373c0.3,0.2,0.3,0.6,0.1,0.9c-0.3,0.4-6,5.9-9.4,9.2C202.6,383.3,202.5,383.3,202.3,383.4z&#10;&#9;&#9; M191.4,375.2l10.8,6.6c3-2.9,7-6.8,8.4-8.1l-12.2-10.3L191.4,375.2z"/>
	<path class="st0_architect-78" d="M242.8,404.6l0.8,15l44.4-7.5c0,0-11.7-8-30.6-10L242.8,404.6z"/>
	<path class="st0_architect-78" d="M243.6,420.3c-0.2,0-0.3-0.1-0.4-0.1c-0.2-0.1-0.2-0.3-0.3-0.5l-0.8-15c0-0.4,0.2-0.7,0.6-0.7l14.6-2.5&#10;&#9;&#9;c0.1,0,0.1,0,0.2,0c18.9,2,30.8,10,30.9,10.1c0.3,0.2,0.4,0.7,0.2,1c-0.1,0.2-0.3,0.3-0.5,0.3l-44.4,7.5L243.6,420.3z M243.5,405.2&#10;&#9;&#9;l0.7,13.6l41.8-7c-8.8-4.9-18.6-7.9-28.6-8.9L243.5,405.2z"/>
	<path class="st1_architect-78" d="M242,392.2c0,0.4,0.8,12.4,0.8,12.4l14.6-2.5l0.7-12L242,392.2z"/>
	<path class="st0_architect-78" d="M242.8,405.3c-0.2,0-0.3-0.1-0.4-0.1c-0.2-0.1-0.3-0.3-0.3-0.5c-0.1-2-0.8-12-0.8-12.4c0-0.4,0.3-0.6,0.6-0.7&#10;&#9;&#9;l16-2.1c0.2,0,0.4,0,0.6,0.2c0.2,0.1,0.2,0.3,0.2,0.5l-0.6,12c0,0.3-0.3,0.6-0.6,0.7L242.8,405.3L242.8,405.3z M242.7,392.9&#10;&#9;&#9;c0.1,1.8,0.4,7,0.7,10.9l13.3-2.3l0.6-10.6L242.7,392.9z"/>
	<path class="st0_architect-78" d="M185.9,285.3c0,0,65.7-8.4,72.3,6.6c6.6,15-48.8,87.8-48.8,87.8l-17.7-13.3l23.8-50.3c0,0-55.4,8.1-59.4-4.7&#10;&#9;&#9;s28.9-23.6,28.9-23.6L185.9,285.3z"/>
	<path class="st0_architect-78" d="M209.4,380.3c-0.2,0-0.3-0.1-0.4-0.1l-17.7-13.3c-0.3-0.2-0.4-0.6-0.2-0.9l23.3-49.1&#10;&#9;&#9;c-8.6,1.2-55.1,6.9-58.9-5.4c-3.9-12.8,25.3-23.2,29-24.4l0.7-2c0.1-0.3,0.3-0.4,0.6-0.5c2.7-0.3,66.3-8.3,73,7S212.2,377,210,380&#10;&#9;&#9;C209.9,380.2,209.6,380.3,209.4,380.3z M192.6,366.1l16.7,12.5c2.4-3.2,14.8-19.8,26.4-37.7c21.3-32.9,23.7-44.7,21.9-48.8&#10;&#9;&#9;c-2.6-5.9-15.7-8.8-37.9-8.5c-15.5,0.2-30.4,2-33.2,2.3l-0.6,1.9c-0.1,0.2-0.2,0.4-0.4,0.5c-0.3,0.1-32.2,10.7-28.5,22.8&#10;&#9;&#9;c3.1,10.1,43.4,6.5,58.6,4.2c0.4-0.1,0.7,0.2,0.8,0.6c0,0.1,0,0.3-0.1,0.4L192.6,366.1z M185.1,287.7L185.1,287.7z"/>
	<path class="st0_architect-78" d="M137.1,294.6c0,1.6-7.1,21.7,10.6,31.5s89.9,5.9,89.9,5.9l1.4,63.6l19.9-1.3c0,0,11.3-61.8,2.1-77&#10;&#9;&#9;s-93.6-28.1-93.6-28.1L137.1,294.6z"/>
	<path class="st0_architect-78" d="M239,396.4c-0.2,0-0.3-0.1-0.5-0.2c-0.1-0.1-0.2-0.3-0.2-0.5l-1.3-62.9c-8,0.4-72.6,3.4-89.5-6&#10;&#9;&#9;c-10.7-5.9-14.5-16.4-11.2-31c0.1-0.4,0.2-0.7,0.2-1.1c0-0.3,0.3-0.6,0.6-0.7l30.4-5.4c0.1,0,0.2,0,0.2,0&#10;&#9;&#9;c3.5,0.5,84.8,13.1,94,28.5c9.2,15.4-1.5,75-2,77.5c-0.1,0.3-0.3,0.6-0.6,0.6L239,396.4L239,396.4z M237.6,331.4&#10;&#9;&#9;c0.2,0,0.3,0.1,0.5,0.2c0.1,0.1,0.2,0.3,0.2,0.5l1.4,62.9l18.6-1.2c1.1-6.1,10.6-61.9,2.1-76c-8.8-14.5-89.4-27.2-92.9-27.8&#10;&#9;&#9;l-29.7,5.3c0,0.2-0.1,0.5-0.2,0.8c-3.1,14,0.4,23.9,10.6,29.5C165.4,335.1,236.9,331.4,237.6,331.4L237.6,331.4z"/>
	<path class="st0_architect-78" d="M201.8,177.9c-2.2,0-4.1-2.4-4.2-5.4c-0.1-1.4,0.3-2.7,1-3.9c0.6-1.1,1.7-1.8,2.9-1.9c2.3-0.1,4.2,2.4,4.3,5.4&#10;&#9;&#9;s-1.6,5.7-3.9,5.8H201.8z M201.6,168.1L201.6,168.1c-0.8,0.1-1.5,0.5-1.9,1.2c-0.6,0.9-0.8,2-0.8,3.1c0.1,2.3,1.4,4.1,2.9,4.1&#10;&#9;&#9;s2.6-2,2.6-4.3l0,0C204.3,169.9,203,168.1,201.6,168.1L201.6,168.1z"/>
	<path class="st1_architect-78" d="M176.3,198c-2.8,0.8-5.6,0.8-8.4,0.1c-1.7-0.4-3.7-1.7-3.1-3.3l2.1-1c-4.8-4.5-8.1-10.3-9.6-16.7&#10;&#9;&#9;c-1.4-6.4-0.3-13.4,3.7-18.6c1.9-2.5,4.5-4.6,7.6-4.8l-5.2-0.4c4.7-5.1,11.5-7.7,18.4-7.2l-3.5-2.1c7.8-2.6,16.3-0.2,21.6,6&#10;&#9;&#9;c1.2,1.2,1.9,2.8,2.2,4.5c0.3,2.9-2.3,4.6-4.3,6.2c2.1,2.6,3.1,3.2,2.8,6.5c-0.4,3.1-1.4,6.1-2.9,8.9c-1.6,2.9-3.5,5.6-5.5,8.2&#10;&#9;&#9;C187.7,190.1,182.9,196.1,176.3,198z"/>
	<path class="st0_architect-78" d="M172,199.3c-1.4,0-2.9-0.2-4.3-0.5c-1.4-0.3-2.6-1.1-3.4-2.2c-0.3-0.6-0.4-1.3-0.2-1.9&#10;&#9;&#9;c0.1-0.2,0.2-0.3,0.4-0.4l1.3-0.6c-4.5-4.5-7.7-10.2-9.1-16.4c-1.5-6.9-0.1-14.1,3.8-19.2c1.2-1.6,2.7-3,4.5-4l-1.6-0.1&#10;&#9;&#9;c-0.4,0-0.7-0.4-0.6-0.8c0-0.2,0.1-0.3,0.2-0.4c4.3-4.5,10.1-7.2,16.4-7.5l-1.3-0.8c-0.2-0.1-0.4-0.4-0.3-0.7&#10;&#9;&#9;c0-0.3,0.2-0.5,0.5-0.6c8-2.7,16.9-0.2,22.4,6.2c1.2,1.3,2.1,3,2.3,4.9c0.3,3-2.1,4.9-4,6.4l0.3,0.4c1.6,1.9,2.5,2.9,2.2,6.1&#10;&#9;&#9;c-0.5,3.2-1.5,6.3-3,9.1c-1.3,2.3-2.7,4.5-4.3,6.5l-1.3,1.7c-4.4,6.1-9.3,12.3-16.1,14.2l0,0C175,199.1,173.5,199.3,172,199.3z&#10;&#9;&#9; M176.3,198L176.3,198z M165.4,195.3c0,0.2,0,0.4,0.1,0.6c0.6,0.8,1.5,1.4,2.5,1.6c2.7,0.7,5.4,0.6,8.1-0.1l0,0&#10;&#9;&#9;c6.4-1.8,11.1-7.8,15.4-13.7l1.3-1.8c1.6-2,3-4.1,4.2-6.3c1.4-2.7,2.4-5.6,2.9-8.6c0.2-2.6-0.3-3.3-1.9-5.1l-0.8-0.9&#10;&#9;&#9;c-0.1-0.1-0.2-0.3-0.2-0.5c0-0.2,0.1-0.4,0.3-0.5l0.5-0.4c1.8-1.4,3.8-2.9,3.5-5.2c-0.2-1.5-0.9-3-2-4.1c-4.8-5.5-12.2-8-19.4-6.2&#10;&#9;&#9;l2.2,1.3c0.3,0.2,0.4,0.5,0.3,0.8c-0.1,0.3-0.4,0.5-0.7,0.5c-6.2-0.4-12.2,1.8-16.8,6l3.8,0.3c0.4,0,0.6,0.3,0.6,0.7&#10;&#9;&#9;c0,0.4-0.3,0.7-0.6,0.7c-3.4,0.3-5.9,3-7.1,4.6c-3.6,4.8-4.9,11.5-3.5,18c1.5,6.3,4.8,11.9,9.4,16.4c0.2,0.2,0.2,0.4,0.2,0.6&#10;&#9;&#9;c0,0.2-0.2,0.4-0.4,0.5L165.4,195.3z"/>
	<path class="st1_architect-78" d="M200.4,176.9c0,0,5.6,8,4.6,9.7s-4.8,0.7-4.8,0.7"/>
	<path class="st0_architect-78" d="M202.4,188.3c-0.8,0-1.6-0.1-2.4-0.3c-0.4-0.1-0.6-0.4-0.5-0.8c0.1-0.4,0.4-0.6,0.8-0.5c0,0,0.1,0,0.1,0&#10;&#9;&#9;c0.8,0.2,3.4,0.6,4-0.4c0.4-0.7-1.7-4.9-4.5-8.9c-0.3-0.3-0.2-0.7,0.1-1c0.3-0.3,0.7-0.2,1,0.1c0,0,0.1,0.1,0.1,0.1&#10;&#9;&#9;c1.8,2.5,5.8,8.5,4.6,10.4C204.8,187.9,203.6,188.5,202.4,188.3z"/>
	<path class="st1_architect-78" d="M198.2,159.1c3.5,2.7,3.4,15.7,3.5,19.6c0.1,5.4,0.1,10.8,0,16.2c-0.1,3.4-8.9,3.8-10.5,2.8l-1.7,13.8&#10;&#9;&#9;c0,0-0.7,0.9-8-2.2s-7.4-4.8-7.4-4.8l0.1-15.6c0,0,5.9-0.1,9.1-7.2s2.8-17.7,2.8-17.7S194.7,156.5,198.2,159.1z"/>
	<path class="st0_architect-78" d="M188.8,212.3c-1.4,0-4-0.8-7.6-2.4c-7.1-3-7.7-4.9-7.8-5.4l0.1-15.7c0-0.4,0.3-0.7,0.7-0.7&#10;&#9;&#9;c0.2,0,5.5-0.2,8.5-6.8c3.1-6.8,2.7-17.3,2.7-17.4c0-0.2,0.1-0.4,0.2-0.6c0.9-0.8,9.2-7.8,12.9-4.9l0,0c3.1,2.4,3.6,11,3.8,19.1v1&#10;&#9;&#9;c0.1,5.4,0.1,10.8,0,16.2c-0.1,1.2-0.8,2.2-1.9,2.7c-2.7,1.2-5.8,1.5-8.7,1l-1.6,13c0,0.1-0.1,0.2-0.1,0.4&#10;&#9;&#9;C189.7,212.2,189.3,212.3,188.8,212.3z M174.8,204.4c0.1,0.2,1.1,1.8,6.9,4.2c4.6,2,6.4,2.2,7.1,2.2l1.6-13.4&#10;&#9;&#9;c0-0.2,0.2-0.4,0.4-0.5c0.2-0.1,0.5-0.1,0.7,0c0.9,0.5,5.8,0.6,8.3-0.7c0.8-0.4,1.2-0.9,1.2-1.5c0.1-5.4,0.1-10.8,0-16.2v-1&#10;&#9;&#9;c-0.1-4.3-0.3-15.7-3.2-18l0,0c-2.3-1.8-8.6,2.6-10.9,4.6c0,1.9,0.1,11.2-2.9,17.8c-2.8,6-7.3,7.3-9,7.5L174.8,204.4z"/>
	<path class="st1_architect-78" d="M201.4,190.9c0,0-2.1,0.7-7.3-3.8"/>
	<path class="st0_architect-78" d="M201,191.6c-1,0-3.3-0.5-7.4-4c-0.3-0.3-0.3-0.7,0-1c0.2-0.3,0.6-0.3,0.9-0.1c4.7,4,6.7,3.7,6.7,3.7&#10;&#9;&#9;c0.4-0.1,0.7,0.1,0.8,0.5c0.1,0.4-0.1,0.7-0.4,0.8C201.4,191.6,201.2,191.6,201,191.6z"/>
	<path class="st0_architect-78" d="M191.1,197.6c0,0-4.6-1.3-6.9-4.4c0,0-2.4,10.3,5.9,12.6L191.1,197.6z"/>
	<path class="st0_architect-78" d="M190.1,206.6h-0.2c-8.9-2.4-6.4-13.3-6.4-13.4c0.1-0.3,0.3-0.5,0.5-0.5c0.3-0.1,0.5,0.1,0.7,0.3&#10;&#9;&#9;c2,2.8,6.4,4.1,6.5,4.1c0.3,0.1,0.5,0.4,0.5,0.8l-1,8.2c0,0.2-0.1,0.4-0.3,0.5C190.4,206.5,190.3,206.6,190.1,206.6z M184.7,194.9&#10;&#9;&#9;c-0.3,2.6-0.3,8.2,4.8,10.1l0.8-6.8C188.3,197.5,186.4,196.3,184.7,194.9z"/>
	
		<ellipse transform="matrix(9.999500e-03 -0.9999 0.9999 9.999500e-03 24.231 366.0577)" class="st0_architect-78" cx="197" cy="170.8" rx="1.9" ry="0.8"/>
	<path class="st0_architect-78" d="M184.6,178c-0.4,0-0.7-0.3-0.7-0.7c0-0.3,0.2-0.6,0.5-0.7l20.4-5.1c0.4-0.1,0.8,0.1,0.9,0.5&#10;&#9;&#9;c0.1,0.4-0.1,0.8-0.5,0.9l0,0l-20.5,5.2C184.7,178,184.7,178,184.6,178z"/>
	<path class="st1_architect-78" d="M190.1,180.7c-0.2-1.4-0.7-2.6-1.6-3.7c-0.5-0.9-1.2-1.7-2-2.4c-0.8-0.7-1.9-1-2.9-0.8&#10;&#9;&#9;c-0.9,0.3-1.7,0.9-2.1,1.7c-0.4,0.8-0.6,1.8-0.6,2.7c-0.1,4.1,2.1,8,5.6,10.1l-0.3-0.3"/>
	<path class="st0_architect-78" d="M186.5,189.1c-0.1,0-0.2,0-0.4-0.1c-3.8-2.3-6-6.3-6-10.7c0-1,0.2-2.1,0.7-3c0.5-1,1.4-1.8,2.5-2.1&#10;&#9;&#9;c1.3-0.2,2.6,0.1,3.5,0.9c0.8,0.7,1.6,1.6,2.2,2.5c0.9,1.1,1.5,2.5,1.7,4c0,0.4-0.3,0.7-0.6,0.7c0,0,0,0,0,0&#10;&#9;&#9;c-0.4,0-0.7-0.3-0.7-0.6c0,0,0,0,0,0c-0.2-1.2-0.7-2.3-1.5-3.3c-0.5-0.8-1.2-1.6-1.9-2.2c-0.6-0.6-1.5-0.8-2.3-0.7&#10;&#9;&#9;c-0.7,0.2-1.3,0.7-1.6,1.4c-0.3,0.7-0.5,1.6-0.5,2.4c0,3.6,1.7,7,4.7,9.1c0.2,0,0.4,0.1,0.5,0.2l0.3,0.3c0.3,0.3,0.3,0.7,0,1&#10;&#9;&#9;C186.8,189,186.7,189.1,186.5,189.1L186.5,189.1z"/>
	<path class="st1_architect-78" d="M278.1,198.8c-1.8,0.3-3.5,0.7-5.2,1.2c-0.7,0.4-1.9,1.3-1.9,1.3c0.5,0.3,1.2,0.5,1.8,0.6&#10;&#9;&#9;c0.6,0,4.3-0.7,4.3-0.7"/>
	<path class="st0_architect-78" d="M272.7,202.6c-0.7-0.1-1.4-0.3-2-0.6c-0.3-0.2-0.5-0.6-0.3-0.9c0.1-0.1,0.1-0.2,0.2-0.2c0,0,1.2-0.9,2-1.4&#10;&#9;&#9;s4.1-1,5.5-1.3c0.4-0.1,0.8,0.2,0.8,0.5c0.1,0.4-0.2,0.8-0.5,0.8c0,0-0.1,0-0.1,0c-1.7,0.2-3.4,0.6-5,1.1l-0.8,0.6&#10;&#9;&#9;c0.1,0,0.2,0,0.3,0c0.4,0,2.8-0.4,4.2-0.7c0.4-0.1,0.8,0.1,0.9,0.5c0.1,0.4-0.1,0.8-0.5,0.9c0,0-0.1,0-0.1,0&#10;&#9;&#9;c-0.4,0.1-3.7,0.7-4.4,0.7L272.7,202.6z"/>
	<path class="st1_architect-78" d="M270.7,213l5.1-5.5c0,0-0.1-4.6,0.6-6.6s2.1-4.3,2.8-3.8s0,4.7,1.2,5.3s3.4-1.3,3.4-2.6s-2.2-2.8-1.9-3.8&#10;&#9;&#9;s0.8-2.5,3.1-1.2s5.6,3.6,5.5,7.1S280,221.1,280,221.1L270.7,213z"/>
	<path class="st0_architect-78" d="M280,221.8c-0.2,0-0.3-0.1-0.5-0.2l-9.3-8c-0.1-0.1-0.2-0.3-0.2-0.5c0-0.2,0.1-0.4,0.2-0.5l5-5.3&#10;&#9;&#9;c-0.1-2.2,0.1-4.4,0.6-6.6c0.5-1.3,1.7-3.9,2.9-4.3c0.3-0.1,0.7-0.1,1,0.1c0.6,0.4,0.6,1.3,0.7,2.7c0,0.7,0.1,2.4,0.4,2.6&#10;&#9;&#9;c0.4,0.1,0.7,0,1-0.3c0.7-0.4,1.1-1,1.3-1.7c-0.2-0.6-0.4-1.1-0.9-1.5c-0.6-0.8-1.2-1.6-1-2.5c0.1-0.9,0.7-1.6,1.4-2.1&#10;&#9;&#9;c0.9-0.3,2-0.1,2.8,0.4c3.9,2.1,6,4.8,5.9,7.8c-0.1,3.6-9.6,17.9-10.7,19.5c-0.1,0.2-0.3,0.3-0.5,0.3L280,221.8z M271.8,213&#10;&#9;&#9;l8.1,7.1c4.1-6.2,10-15.8,10-18.1c0.1-3-2.8-5.2-5.1-6.5c-0.9-0.5-1.4-0.5-1.5-0.4s-0.5,0.6-0.6,1.1c-0.1,0.2,0.5,0.9,0.8,1.3&#10;&#9;&#9;c0.6,0.6,1,1.5,1.1,2.3c-0.2,1.2-0.9,2.3-2,2.9c-0.7,0.5-1.6,0.6-2.4,0.3c-1-0.5-1.1-2.2-1.2-3.8c0-0.4,0-0.9-0.1-1.3&#10;&#9;&#9;c-0.7,1-1.3,2.1-1.7,3.2c-0.6,1.8-0.6,6.3-0.6,6.4c0,0.2-0.1,0.4-0.2,0.5L271.8,213z"/>
	<path class="st1_architect-78" d="M199.2,216.2c0.3,0.1,4.2-13.3,4.6-14.4c0.7-2.3,1.7-4.4,3.1-6.4c0.6-0.9,1.3-1.6,2.2-2.2&#10;&#9;&#9;c0.2-0.1,0.4-0.2,0.6-0.1c0.1,0.1,0.2,0.2,0.3,0.4c0.2,0.6,0.2,1.3-0.1,1.9c0.6-1.1,1.2-3.3,2.9-3.1c2.1,0.2,1.5,2.6,0.8,3.8&#10;&#9;&#9;c0,0,1.7-3.4,3.2-2.3c0.9,0.5,1.1,1.7,0.6,2.5c0,0,0,0.1-0.1,0.1c0,0,1.1-2.6,2.7-1.5s0.7,3.1,0,4.4s-6.1,8.1-6.1,8.1&#10;&#9;&#9;s4.8-4.1,5.8-3.1s-7.3,9.8-9.3,14.2L199.2,216.2z"/>
	<path class="st0_architect-78" d="M210.4,219.3h-0.1l-11.2-2.4l0,0c-0.4-0.1-0.6-0.5-0.5-0.8c0-0.1,0.1-0.2,0.2-0.3c0.4-0.9,2.3-7.1,3.3-10.4&#10;&#9;&#9;c0.6-1.9,1-3.4,1.2-3.8c0.7-2.3,1.8-4.6,3.1-6.6c0.6-1,1.5-1.8,2.5-2.4c0.4-0.2,0.8-0.3,1.2-0.1c0.2,0.1,0.3,0.2,0.4,0.3&#10;&#9;&#9;c0.5-0.9,1.5-1.3,2.5-1.2c0.8,0,1.5,0.5,1.8,1.2c0.1,0.2,0.1,0.3,0.2,0.5c0.3-0.2,0.5-0.3,0.8-0.4c0.5-0.1,1.1,0,1.5,0.3&#10;&#9;&#9;c0.4,0.3,0.7,0.6,0.9,1c0.2-0.1,0.4-0.2,0.6-0.2c0.6-0.2,1.2,0,1.7,0.4c2.2,1.6,0.7,4.4,0.2,5.3c-0.4,0.7-1.8,2.6-3.2,4.4&#10;&#9;&#9;c1.2-0.6,2.2-0.8,2.8-0.3c0.9,0.9-0.3,2.6-3.9,7.2c-2.1,2.7-4.4,5.7-5.3,7.8C211,219.1,210.7,219.3,210.4,219.3z M200.2,215.7&#10;&#9;&#9;l9.8,2.1c1.6-2.6,3.3-5.2,5.2-7.5c1.4-1.7,2.6-3.5,3.7-5.4c-1.7,0.8-3.3,1.8-4.7,3.1c-0.3,0.2-0.7,0.2-0.9,0&#10;&#9;&#9;c-0.3-0.3-0.3-0.7-0.1-0.9c1.5-1.9,5.5-7,6.1-8c1-1.8,1-2.9,0.2-3.5c-0.3-0.2-0.4-0.2-0.5-0.1c-0.4,0.2-0.7,0.5-0.9,0.8&#10;&#9;&#9;c-0.1,0.2-0.2,0.4-0.3,0.6c-0.2,0.3-0.6,0.4-0.9,0.2c-0.3-0.2-0.4-0.6-0.3-0.9c0.1-0.2,0.2-0.4,0.3-0.6c0.1-0.5-0.1-1-0.6-1.2&#10;&#9;&#9;c-0.1-0.1-0.2-0.1-0.4-0.1c-0.6,0.1-1.2,1-1.6,1.6c-0.1,0.2-0.2,0.4-0.3,0.6c-0.2,0.3-0.6,0.4-0.9,0.2c-0.3-0.2-0.5-0.6-0.3-0.9&#10;&#9;&#9;c0-0.1,0.1-0.2,0.3-0.5c0.3-0.6,0.4-1.2,0.2-1.9c-0.1-0.2-0.2-0.4-0.7-0.4c-0.9-0.1-1.3,0.8-1.9,2c-0.1,0.3-0.2,0.5-0.3,0.7l0,0&#10;&#9;&#9;c-0.2,0.3-0.6,0.5-1,0.3s-0.5-0.6-0.3-1l0,0l0,0c0.2-0.3,0.2-0.7,0.1-1.1c-0.8,0.5-1.4,1.1-1.9,1.9c-1.3,1.9-2.3,4.1-3,6.3&#10;&#9;&#9;c-0.1,0.4-0.6,1.8-1.1,3.7C201.6,211.5,200.8,214.3,200.2,215.7z"/>
	<path class="st3_architect-78 targetColor" d="M205.7,209.4c0,0-36.6-18-52.8,2.1s-22.5,82.8-17.7,90.7c0,0,39.4,2.9,57.9-19.2l8.2-40.4&#10;&#9;&#9;c0,0,33.9,29.5,53.6,14.1c12-9.4,21.6-21.6,28-35.4L271.2,211c0,0-24.8,23.6-34.7,20.5S205.7,209.4,205.7,209.4z" style="fill: rgb(104, 225, 253);"/>
	<path class="st1_architect-78" d="M251.6,309.1c-0.1,0-0.2,0-0.2,0c-9.8-3.6-63.9-15.6-64.4-15.8c-0.4-0.1-0.6-0.5-0.5-0.8&#10;&#9;&#9;c0.1-0.4,0.5-0.6,0.8-0.5c2.2,0.5,54.7,12.1,64.6,15.8c0.4,0.1,0.5,0.5,0.4,0.9C252.1,309,251.9,309.1,251.6,309.1z"/>
	<path class="st1_architect-78" d="M204.7,333.5c-0.4,0-0.7-0.3-0.7-0.7c0-0.4,0.3-0.7,0.7-0.7l33-0.8c0.4,0,0.7,0.3,0.7,0.7&#10;&#9;&#9;c0,0.4-0.3,0.7-0.7,0.7L204.7,333.5L204.7,333.5z"/>
	<path class="st1_architect-78" d="M297.4,195.8c-2.5,0-17.8,3.1-17.8,3.1l0.1,1.9c0,0,16.5-2.6,17.9-2.9S299.9,195.8,297.4,195.8z"/>
	<path class="st0_architect-78" d="M279.7,201.4c-0.2,0-0.3-0.1-0.4-0.1c-0.2-0.1-0.3-0.3-0.3-0.5l-0.1-1.9c0-0.3,0.2-0.7,0.6-0.7&#10;&#9;&#9;c0.6-0.1,15.4-3.1,17.9-3.1c1.9,0,2.2,0.9,2.3,1.3c0.1,0.9-0.7,1.8-1.9,2c-1.4,0.3-17.3,2.8-17.9,2.9L279.7,201.4z M280.3,199.4&#10;&#9;&#9;v0.5c3.2-0.5,15.9-2.5,17.1-2.8c0.3-0.1,0.6-0.2,0.8-0.5c-0.3-0.1-0.6-0.1-0.9-0.1C295.5,196.5,285.8,198.3,280.3,199.4&#10;&#9;&#9;L280.3,199.4z"/>
	<path class="st0_architect-78" d="M221.2,256.3c-0.1,0-0.1,0-0.2,0c-15.9-5.3-33.6-25.4-34.4-26.3c-0.3-0.3-0.2-0.7,0.1-1c0.3-0.3,0.7-0.2,1,0&#10;&#9;&#9;c0,0,0,0,0,0c0.2,0.2,18.2,20.7,33.8,25.8c0.4,0.1,0.6,0.5,0.5,0.9C221.8,256,221.5,256.2,221.2,256.3L221.2,256.3z"/>
</g>
</svg>